# xmcd CD database file
#
# Track frame offsets:
#	150
#	7080
#	17345
#	29472
#	37828
#	51300
#	59642
#	82043
#	96992
#	109493
#	122249
#	138629
#	151741
#	162848
#	174903
#	186895
#	192176
#	198273
#
# Disc length: 2870 seconds
#
# Revision: 5
# Processed by: cddbd v1.5.2PL0 Copyright (c) Steve Scherf et al.
# Submitted via: jetAudio 7
#
DISCID=f30b3412
DTITLE=Various Artist - The best of bluegrass
DYEAR=1999
DGENRE=Country
TTITLE0=Arizona Smoke Revue - Duelling banjos
TTITLE1=Arizona Smoke Revue - Earl's breakdown
TTITLE2=Arizona Smoke Revue - Black mountain rag
TTITLE3=Arizona Smoke Revue - Sailor's hornpipe
TTITLE4=Arizona Smoke Revue - The Battle of New Orleans
TTITLE5=Arizona Smoke Revue - Old rebel
TTITLE6=Arizona Smoke Revue - Reuben's train
TTITLE7=Arizona Smoke Revue - The banks of the Ohio
TTITLE8=Arizona Smoke Revue - Orange blossom special
TTITLE9=Arizona Smoke Revue - Grandfather's clock
TTITLE10=Arizona Smoke Revue - Old groundhog
TTITLE11=The Blackwater Boys - My dixie darling
TTITLE12=The Blackwater Boys - Blue moon of Kentucky
TTITLE13=The Blackwater Boys - Shady grove
TTITLE14=The Blackwater Boys - Mule skinner blues
TTITLE15=The Blackwater Boys - Blue ridge hoe - Down
TTITLE16=The Driver Brothers - Goldrush fever
TTITLE17=The Blackwater Boys - Will the circle be unbroken?
EXTD=
EXTT0=
EXTT1=
EXTT2=
EXTT3=
EXTT4=
EXTT5=
EXTT6=
EXTT7=
EXTT8=
EXTT9=
EXTT10=
EXTT11=
EXTT12=
EXTT13=
EXTT14=
EXTT15=
EXTT16=
EXTT17=
PLAYORDER=
